<svg xmlns="http://www.w3.org/2000/svg" width="128" height="128" viewBox="0 0 128 128" fill="none">
  <rect width="128" height="128" rx="24" fill="#0A66C2"/>
  <circle cx="64" cy="64" r="40" fill="white"/>
  <circle cx="64" cy="64" r="16" fill="#0A66C2"/>
  <path d="M64 32C46.3269 32 32 46.3269 32 64C32 81.6731 46.3269 96 64 96C81.6731 96 96 81.6731 96 64C96 46.3269 81.6731 32 64 32ZM64 88C50.7452 88 40 77.2548 40 64C40 50.7452 50.7452 40 64 40C77.2548 40 88 50.7452 88 64C88 77.2548 77.2548 88 64 88Z" fill="#0A66C2"/>
  <path d="M64 56C59.5817 56 56 59.5817 56 64C56 68.4183 59.5817 72 64 72C68.4183 72 72 68.4183 72 64C72 59.5817 68.4183 56 64 56Z" fill="#0A66C2"/>
</svg>

